<svg width="125" height="29" viewBox="0 0 125 29" fill="none" xmlns="http://www.w3.org/2000/svg">
<path fill-rule="evenodd" clip-rule="evenodd" d="M32.2498 28.5431C41.1653 20.4325 32.034 13 23 13C13.8567 13 3.76775 20.1905 13.1001 28.736C12.4203 28.9093 11.7182 29 11 29C8.96408 29 7.05734 28.2709 5.42185 27C2.17709 24.4785 0 19.8244 0 14.5C0 6.49187 4.92487 0 11 0C13.2136 0 15.2744 0.861883 17 2.34496C18.7256 0.861883 20.7864 0 23 0C25.2136 0 27.2744 0.861883 29 2.34496C30.7256 0.861883 32.7864 0 35 0C41.0751 0 46 6.49187 46 14.5C46 22.5081 41.0751 29 35 29C34.0504 29 33.1288 28.8414 32.2498 28.5431Z" fill="#494949"/>
<ellipse cx="22.5" cy="22" rx="10.5" ry="7" fill="#EF5E5E"/>
<path d="M66.848 9.816L63.68 21H62.432L59.616 11.464L56.736 21L55.52 21.016L52.416 9.816H53.616L56.176 19.624L59.04 9.816H60.288L63.072 19.624L65.648 9.816H66.848ZM69.1213 10.616C68.8973 10.616 68.7053 10.536 68.5453 10.376C68.3853 10.216 68.3053 10.0187 68.3053 9.784C68.3053 9.54933 68.3853 9.35733 68.5453 9.208C68.7053 9.048 68.8973 8.968 69.1213 8.968C69.3453 8.968 69.5373 9.048 69.6973 9.208C69.8573 9.35733 69.9373 9.54933 69.9373 9.784C69.9373 10.0187 69.8573 10.216 69.6973 10.376C69.5373 10.536 69.3453 10.616 69.1213 10.616ZM69.6813 12.264V21H68.5613V12.264H69.6813ZM80.1215 16.184C80.1215 16.568 80.1108 16.8613 80.0895 17.064H72.8415C72.8735 17.7253 73.0335 18.2907 73.3215 18.76C73.6095 19.2293 73.9882 19.5867 74.4575 19.832C74.9268 20.0667 75.4388 20.184 75.9935 20.184C76.7188 20.184 77.3268 20.008 77.8175 19.656C78.3188 19.304 78.6495 18.8293 78.8095 18.232H79.9935C79.7802 19.0853 79.3215 19.784 78.6175 20.328C77.9242 20.8613 77.0495 21.128 75.9935 21.128C75.1722 21.128 74.4362 20.9467 73.7855 20.584C73.1348 20.2107 72.6228 19.688 72.2495 19.016C71.8868 18.3333 71.7055 17.5387 71.7055 16.632C71.7055 15.7253 71.8868 14.9307 72.2495 14.248C72.6122 13.5653 73.1188 13.0427 73.7695 12.68C74.4202 12.3173 75.1615 12.136 75.9935 12.136C76.8255 12.136 77.5508 12.3173 78.1695 12.68C78.7988 13.0427 79.2788 13.5333 79.6095 14.152C79.9508 14.76 80.1215 15.4373 80.1215 16.184ZM78.9855 16.152C78.9962 15.5013 78.8628 14.9467 78.5855 14.488C78.3188 14.0293 77.9508 13.6827 77.4815 13.448C77.0122 13.2133 76.5002 13.096 75.9455 13.096C75.1135 13.096 74.4042 13.3627 73.8175 13.896C73.2308 14.4293 72.9055 15.1813 72.8415 16.152H78.9855ZM83.2906 13.816C83.536 13.272 83.9093 12.8507 84.4106 12.552C84.9226 12.2533 85.5466 12.104 86.2826 12.104V13.272H85.9786C85.168 13.272 84.5173 13.4907 84.0266 13.928C83.536 14.3653 83.2906 15.096 83.2906 16.12V21H82.1706V12.264H83.2906V13.816ZM87.4555 16.616C87.4555 15.72 87.6368 14.936 87.9995 14.264C88.3622 13.5813 88.8582 13.0587 89.4875 12.696C90.1275 12.3227 90.8475 12.136 91.6475 12.136C92.4155 12.136 93.1088 12.3227 93.7275 12.696C94.3462 13.0693 94.7995 13.5547 95.0875 14.152V9.16H96.2075V21H95.0875V19.048C94.8208 19.656 94.3835 20.1573 93.7755 20.552C93.1675 20.936 92.4528 21.128 91.6315 21.128C90.8315 21.128 90.1115 20.9413 89.4715 20.568C88.8422 20.1947 88.3462 19.6667 87.9835 18.984C87.6315 18.3013 87.4555 17.512 87.4555 16.616ZM95.0875 16.632C95.0875 15.928 94.9435 15.3093 94.6555 14.776C94.3675 14.2427 93.9728 13.832 93.4715 13.544C92.9808 13.256 92.4368 13.112 91.8395 13.112C91.2208 13.112 90.6662 13.2507 90.1755 13.528C89.6848 13.8053 89.2955 14.2107 89.0075 14.744C88.7302 15.2667 88.5915 15.8907 88.5915 16.616C88.5915 17.3307 88.7302 17.96 89.0075 18.504C89.2955 19.0373 89.6848 19.448 90.1755 19.736C90.6662 20.0133 91.2208 20.152 91.8395 20.152C92.4368 20.152 92.9808 20.008 93.4715 19.72C93.9728 19.432 94.3675 19.0213 94.6555 18.488C94.9435 17.9547 95.0875 17.336 95.0875 16.632ZM107.068 9.816V21H105.948V15.768H99.8844V21H98.7644V9.816H99.8844V14.84H105.948V9.816H107.068ZM109.112 16.616C109.112 15.72 109.288 14.936 109.64 14.264C110.002 13.5813 110.498 13.0587 111.128 12.696C111.768 12.3227 112.488 12.136 113.288 12.136C114.12 12.136 114.834 12.328 115.432 12.712C116.04 13.096 116.477 13.5867 116.744 14.184V12.264H117.864V21H116.744V19.064C116.466 19.6613 116.024 20.1573 115.416 20.552C114.818 20.936 114.104 21.128 113.272 21.128C112.482 21.128 111.768 20.9413 111.128 20.568C110.498 20.1947 110.002 19.6667 109.64 18.984C109.288 18.3013 109.112 17.512 109.112 16.616ZM116.744 16.632C116.744 15.928 116.6 15.3093 116.312 14.776C116.024 14.2427 115.629 13.832 115.128 13.544C114.637 13.256 114.093 13.112 113.496 13.112C112.877 13.112 112.322 13.2507 111.832 13.528C111.341 13.8053 110.952 14.2107 110.664 14.744C110.386 15.2667 110.248 15.8907 110.248 16.616C110.248 17.3307 110.386 17.96 110.664 18.504C110.952 19.0373 111.341 19.448 111.832 19.736C112.322 20.0133 112.877 20.152 113.496 20.152C114.093 20.152 114.637 20.008 115.128 19.72C115.629 19.432 116.024 19.0213 116.312 18.488C116.6 17.9547 116.744 17.336 116.744 16.632ZM121.877 13.208V18.632C121.877 19.1653 121.978 19.5333 122.181 19.736C122.383 19.9387 122.741 20.04 123.253 20.04H124.277V21H123.077C122.287 21 121.701 20.8187 121.317 20.456C120.933 20.0827 120.741 19.4747 120.741 18.632V13.208H119.525V12.264H120.741V10.072H121.877V12.264H124.277V13.208H121.877Z" fill="#494949"/>
</svg>
