<svg width="35" height="35" viewBox="0 0 35 35" fill="none" xmlns="http://www.w3.org/2000/svg">
<circle cx="17.5" cy="17.5" r="17.5" fill="#494949"/>
<path fill-rule="evenodd" clip-rule="evenodd" d="M23.0125 17.4738C22.715 18.0163 22.1375 18.375 21.4813 18.375H14.9625L14 20.125H24.5V21.875H14C12.67 21.875 11.83 20.4487 12.4688 19.2762L13.65 17.1413L10.5 10.5H8.75V8.75H11.6113L12.4338 10.5H25.3838C26.0488 10.5 26.4688 11.2175 26.145 11.795L23.0125 17.4738ZM23.8963 12.2499H13.265L15.3388 16.6249H21.4813L23.8963 12.2499ZM14.0001 22.7501C13.0376 22.7501 12.2589 23.5376 12.2589 24.5001C12.2589 25.4626 13.0376 26.2501 14.0001 26.2501C14.9626 26.2501 15.7501 25.4626 15.7501 24.5001C15.7501 23.5376 14.9626 22.7501 14.0001 22.7501ZM21.0089 24.5001C21.0089 23.5376 21.7876 22.7501 22.7501 22.7501C23.7126 22.7501 24.5001 23.5376 24.5001 24.5001C24.5001 25.4626 23.7126 26.2501 22.7501 26.2501C21.7876 26.2501 21.0089 25.4626 21.0089 24.5001Z" fill="white"/>
</svg>
